<svg width="560" height="369" viewBox="0 0 560 369" fill="none" xmlns="http://www.w3.org/2000/svg">
<g clip-path="url(#clip0)">
<path d="M406.563 209.393V311.326L430.929 339.114L432.783 341.227H528.924L530.867 209.393H406.563Z" fill="#E6E6E6"/>
<path opacity="0.1" d="M406.563 209.393V311.326L430.929 339.113L432.424 209.393H406.563Z" fill="black"/>
<path d="M174.464 206.674V308.608L150.099 336.395L148.244 338.508H52.1033L50.1607 206.674H174.464Z" fill="#E6E6E6"/>
<path opacity="0.1" d="M174.464 206.674V308.608L150.099 336.395L148.603 206.674H174.464Z" fill="black"/>
<path d="M560 204.636V210.751H37.5361V201.917L86.092 184.249H517.271L560 204.636Z" fill="#E6E6E6"/>
<path opacity="0.1" d="M560 204.636V210.751H37.5361V201.917L560 204.636Z" fill="black"/>
<path d="M112.313 235.216H89.0054L79.2943 230.459H122.995L112.313 235.216Z" fill="#3F3D56"/>
<path d="M112.313 254.923H89.0054L79.2943 250.166H122.995L112.313 254.923Z" fill="#3F3D56"/>
<path d="M112.313 282.785H89.0054L79.2943 278.028H122.995L112.313 282.785Z" fill="#3F3D56"/>
<path d="M112.313 310.647H89.0054L79.2943 305.89H122.995L112.313 310.647Z" fill="#3F3D56"/>
<path d="M468.714 237.934H492.022L501.733 233.177H458.032L468.714 237.934Z" fill="#3F3D56"/>
<path d="M468.714 257.641H492.022L501.733 252.884H458.032L468.714 257.641Z" fill="#3F3D56"/>
<path d="M468.714 285.503H492.022L501.733 280.747H458.032L468.714 285.503Z" fill="#3F3D56"/>
<path d="M468.714 313.365H492.022L501.733 308.608H458.032L468.714 313.365Z" fill="#3F3D56"/>
<path d="M484.586 66.3726H288.374C287.399 66.3725 286.434 66.5067 285.534 66.7676C284.633 67.0286 283.815 67.4111 283.126 67.8933C282.437 68.3754 281.891 68.9479 281.518 69.578C281.145 70.208 280.953 70.8833 280.953 71.5652V164.056C280.953 164.738 281.145 165.413 281.518 166.043C281.891 166.673 282.437 167.246 283.126 167.728C283.815 168.21 284.633 168.593 285.534 168.854C286.434 169.114 287.399 169.249 288.374 169.249H362.858L360.067 181.716C360.067 181.716 344.12 187.644 355.333 187.819C366.546 187.993 419.371 187.819 419.371 187.819C419.371 187.819 429.588 187.819 413.391 181.541L410.766 169.249H484.586C485.561 169.249 486.526 169.114 487.426 168.854C488.326 168.593 489.144 168.21 489.833 167.728C490.523 167.246 491.069 166.673 491.442 166.043C491.815 165.413 492.007 164.738 492.007 164.056V71.5652C492.007 70.8833 491.815 70.208 491.442 69.578C491.069 68.9479 490.523 68.3754 489.833 67.8933C489.144 67.4111 488.326 67.0286 487.426 66.7676C486.526 66.5067 485.561 66.3725 484.586 66.3726V66.3726Z" fill="#3F3D56"/>
<path d="M484.905 71.8647H288.055V148.935H484.905V71.8647Z" fill="#F2F2F2"/>
<path d="M386.48 70.2954C387.168 70.2954 387.726 69.9051 387.726 69.4236C387.726 68.9421 387.168 68.5518 386.48 68.5518C385.792 68.5518 385.234 68.9421 385.234 69.4236C385.234 69.9051 385.792 70.2954 386.48 70.2954Z" fill="#F2F2F2"/>
<path d="M386.48 165.499C389.095 165.499 391.214 164.016 391.214 162.186C391.214 160.357 389.095 158.874 386.48 158.874C383.865 158.874 381.745 160.357 381.745 162.186C381.745 164.016 383.865 165.499 386.48 165.499Z" fill="#F2F2F2"/>
<path d="M379.102 197.234V198.978H245.045V197.583L245.229 197.234L248.533 190.957H376.362L379.102 197.234Z" fill="#3F3D56"/>
<path d="M430.692 195.527C430.448 196.257 429.526 197.028 427.443 197.757C419.967 200.372 404.768 197.06 404.768 197.06C404.768 197.06 393.056 195.665 393.056 192.003C393.385 191.845 393.728 191.703 394.083 191.576C397.226 190.412 407.646 187.541 426.123 191.697C427.484 191.996 428.7 192.554 429.635 193.308C430.05 193.593 430.361 193.943 430.545 194.328C430.729 194.714 430.779 195.125 430.692 195.527Z" fill="#3F3D56"/>
<path opacity="0.1" d="M430.692 195.527C421.542 197.98 413.387 198.163 405.017 194.095C401.852 192.458 398.019 191.575 394.083 191.576C397.226 190.412 407.646 187.541 426.123 191.697C427.484 191.996 428.7 192.554 429.635 193.308C430.05 193.593 430.361 193.943 430.545 194.328C430.729 194.714 430.779 195.125 430.692 195.527Z" fill="black"/>
<path d="M419.22 194.096C421.009 194.096 422.459 193.783 422.459 193.398C422.459 193.013 421.009 192.701 419.22 192.701C417.431 192.701 415.981 193.013 415.981 193.398C415.981 193.783 417.431 194.096 419.22 194.096Z" fill="#F2F2F2"/>
<path opacity="0.1" d="M379.102 197.234V198.978H245.045V197.583L245.229 197.234H379.102Z" fill="black"/>
<path d="M74.5378 0.000672992C73.1773 -0.0774951 71.815 0.135472 70.6313 0.611354C69.4691 1.16831 68.7365 2.14404 67.9888 3.05202C65.1299 6.56503 61.2597 9.62429 56.6231 12.036C53.2459 13.7673 48.9523 15.9259 49.5301 19.1179C49.8349 20.1721 50.3914 21.1827 51.1762 22.1074C54.2917 26.5083 62.7934 29.9093 61.9572 34.9311C65.0525 31.3049 60.9123 29.5119 64.0076 25.8858C65.4817 24.1589 68.0424 22.2096 70.268 23.2941C71.0132 23.6572 71.5025 24.3085 72.2784 24.6271C74.1298 25.3873 76.0994 23.9339 77.7382 22.9045C83.3894 19.3545 91.4258 20.2845 98.4581 21.3906C101.778 21.9128 105.425 22.5979 107.387 24.8183C109.968 27.7376 104.936 30.8906 103.664 34.1912C103.56 34.4724 103.556 34.7671 103.65 35.0499C103.744 35.3328 103.935 35.5954 104.206 35.8154C104.477 36.0354 104.821 36.2061 105.207 36.3131C105.592 36.42 106.01 36.4599 106.422 36.4294C108.533 36.2838 111.032 36.1644 111.157 35.5165C113.812 35.5826 117.065 35.3722 118.202 33.4378C118.55 32.6724 118.734 31.8752 118.748 31.0722C119.165 27.8228 121.136 24.8584 122.441 21.7657C123.747 18.6731 124.315 15.0487 122.111 12.3067C121.325 11.3944 120.353 10.5673 119.225 9.85164C106.721 1.38445 90.2823 -0.0118955 74.5378 0.000672992Z" fill="#383325"/>
<path d="M64.6765 41.2731C64.6765 41.2731 67.3957 57.1302 57.4251 58.3988C47.4545 59.6674 66.4893 81.233 66.4893 81.233L111.81 85.0387L100.933 59.6674C100.933 59.6674 93.682 57.7645 98.2141 45.0788C102.746 32.3931 64.6765 41.2731 64.6765 41.2731Z" fill="#FFB8B8"/>
<path d="M37.0305 313.698L40.6566 348.584H59.6908L54.2529 313.698H37.0305Z" fill="#FFB8B8"/>
<path d="M176.62 247.733L179.338 276.91L200.187 270.567L192.028 246.464L176.62 247.733Z" fill="#FFB8B8"/>
<path d="M23.4343 180.499C23.4343 180.499 24.3407 217.287 29.7792 229.339C35.2178 241.39 34.3114 242.025 33.4049 243.927C32.4985 245.83 31.5921 244.562 31.5921 247.733C31.5921 250.905 29.7792 301.013 31.5921 305.453C33.4049 309.893 26.1536 317.504 31.5921 318.139C37.0306 318.773 62.4104 318.139 63.3169 314.333C64.2233 310.527 56.0655 309.259 59.6912 306.722C63.3169 304.184 68.7554 252.173 68.7554 252.173L81.4453 216.019L105.012 196.99H154.865L170.275 238.853C170.275 238.853 163.93 250.905 168.462 250.905C172.994 250.905 200.187 254.71 200.187 240.756C200.187 226.802 191.122 185.573 189.309 184.305C187.497 183.036 190.216 178.596 187.497 176.693C184.777 174.79 153.053 161.47 141.269 158.933C129.486 156.396 112.955 153.376 112.955 153.376L23.4343 180.499Z" fill="#2F2E41"/>
<path d="M200.187 265.493C200.187 265.493 186.59 262.321 180.245 271.836C173.9 281.35 176.62 283.887 176.62 283.887C176.62 283.887 197.467 288.961 201.093 286.424C202.67 285.32 207.679 284.937 212.835 284.856C220.688 284.733 222.778 276.958 215.361 275.148C215.14 275.094 214.916 275.047 214.689 275.007C207.438 273.738 200.187 265.493 200.187 265.493Z" fill="#2F2E41"/>
<path d="M85.071 51.7392C100.089 51.7392 112.264 43.2198 112.264 32.7107C112.264 22.2015 100.089 13.6821 85.071 13.6821C70.0529 13.6821 57.8783 22.2015 57.8783 32.7107C57.8783 43.2198 70.0529 51.7392 85.071 51.7392Z" fill="#FFB8B8"/>
<path d="M49.7205 66.3277C49.7205 66.3277 94.1352 72.6705 105.012 62.5219C115.889 52.3734 120.421 91.0647 120.421 91.0647L125.86 131.659L117.702 153.859C117.702 153.859 75.1003 177.962 61.504 179.865C47.9077 181.767 27.0599 183.036 27.0599 183.036C27.0599 183.036 33.4049 112.63 33.4049 111.362C33.4049 110.093 49.7205 66.3277 49.7205 66.3277Z" fill="#6C63FF"/>
<path d="M63.2281 54.4316C63.2281 54.4316 53.3462 50.4703 50.6269 54.276C47.9076 58.0817 22.5278 67.596 19.8086 67.596C17.0893 67.596 25.2471 120.242 21.6214 126.584C17.9957 132.927 0.773711 179.23 10.7444 183.036C20.715 186.841 13.4636 179.23 23.4343 188.744C33.4049 198.259 82.3517 198.259 85.0709 194.453C87.7902 190.647 63.3168 162.104 67.8489 135.464C72.381 108.825 79.6324 72.036 73.2875 66.9617C66.9425 61.8874 63.2281 54.4316 63.2281 54.4316Z" fill="#2F2E41"/>
<path d="M95.9481 58.7162L97.2106 55.6758C97.2106 55.6758 134.924 64.4248 136.737 70.1334C138.55 75.8419 137.643 115.802 131.299 118.973C124.954 122.145 115.889 127.219 122.234 134.83C128.579 142.442 135.831 150.687 141.269 151.322C146.708 151.956 156.678 156.396 153.959 160.836C151.24 165.276 118.609 157.03 118.609 157.03C118.609 157.03 96.8545 145.613 97.7609 127.853C98.6673 110.093 95.9481 58.7162 95.9481 58.7162Z" fill="#2F2E41"/>
<path d="M127.673 133.562L105.919 162.104C105.919 162.104 74.1939 184.939 92.3223 187.476C110.451 190.013 120.421 166.544 120.421 166.544L143.988 143.076L127.673 133.562Z" fill="#FFB8B8"/>
<path d="M75.8625 4.97861C74.7665 4.92177 73.6686 5.07078 72.6824 5.41023C71.7907 5.86595 71.0558 6.45532 70.5313 7.13528C68.1137 9.68014 64.9621 11.843 61.2791 13.4851C58.53 14.7087 55.0348 16.2345 55.5052 18.4905C55.7605 19.247 56.2149 19.9635 56.8452 20.6035C59.3901 23.7455 60.4032 27.382 59.7313 30.9628L67.2905 23.2741C68.4905 22.0535 70.575 20.6758 72.3867 21.4423C72.9933 21.6989 73.3916 22.1592 74.0233 22.3844C75.5304 22.9217 77.1337 21.8945 78.4678 21.1669C83.0681 18.6578 89.6101 19.3151 95.3347 20.0969C98.0372 20.466 101.006 20.9502 102.603 22.5195C105.258 25.1275 102.486 28.8958 104.035 31.9087C104.469 31.6962 104.838 31.4249 105.119 31.1109C105.4 30.797 105.588 30.4467 105.672 30.0809C107.833 30.1277 110.481 29.979 111.407 28.6117C111.689 28.0759 111.839 27.5106 111.851 26.9397C112.191 24.6431 113.795 22.5479 114.858 20.362C115.921 18.1761 116.383 15.6144 114.589 13.6764C113.933 13.0198 113.141 12.435 112.24 11.9412C102.061 5.95664 88.6792 4.96972 75.8625 4.97861Z" fill="#383325"/>
<path d="M127.673 67.5962L136.118 69.1648C136.118 69.1648 155.772 104.385 151.24 128.487C146.708 152.59 143.988 147.516 143.988 147.516C143.988 147.516 136.737 136.099 120.421 138.636L127.673 67.5962Z" fill="#2F2E41"/>
<path d="M38.2864 343.974C36.1006 346.052 36.5388 349.023 34.6026 351.22C32.9243 353.124 29.7613 354.122 27.6621 355.809C26.9922 356.369 26.3951 356.971 25.8777 357.605C23.9303 359.888 22.3474 362.813 24.2653 365.108C25.8082 366.954 29.0511 367.675 32.0253 368.167C35.7845 368.789 39.6903 369.286 43.4928 368.811C47.2954 368.336 51.0117 366.707 52.3676 364.176C52.634 363.539 52.9508 362.914 53.3165 362.302C55.3775 359.463 61.8422 359.432 63.9515 356.61C65.4276 354.635 64.0707 352.248 62.7143 350.232L58.5717 344.073C57.1969 342.029 51.6238 343.205 48.7184 342.715C44.9292 342.076 41.0123 341.372 38.2864 343.974Z" fill="#2F2E41"/>
<path d="M8.02509 146.248L46.0948 187.476C46.0948 187.476 69.6618 208.407 76.9131 198.893C84.1645 189.379 51.5333 173.522 51.5333 173.522L27.0599 141.808L8.02509 146.248Z" fill="#FFB8B8"/>
<path d="M27.0599 68.8648L19.8086 67.5962C19.8086 67.5962 5.30581 70.7676 1.68013 84.0876C-1.94556 97.4076 0.773701 150.687 5.30581 151.322C9.83792 151.956 27.6899 142.045 30.5474 144.146C33.4049 146.247 24.3407 135.465 27.0599 129.756C29.7791 124.047 27.0599 68.8648 27.0599 68.8648Z" fill="#2F2E41"/>
<path d="M367.848 97.1772H344.421V101.124H367.848V97.1772Z" fill="#6C63FF"/>
<path d="M448.977 97.1772H440.734V101.124H448.977V97.1772Z" fill="#6C63FF"/>
<path d="M465.463 97.1772H457.22V101.124H465.463V97.1772Z" fill="#6C63FF"/>
<path d="M432.057 97.1772H376.091V101.124H432.057V97.1772Z" fill="#6C63FF"/>
<path d="M338.347 122.679H314.919V126.625H338.347V122.679Z" fill="#6C63FF"/>
<path d="M419.475 122.679H411.232V126.625H419.475V122.679Z" fill="#6C63FF"/>
<path d="M435.961 122.679H427.718V126.625H435.961V122.679Z" fill="#6C63FF"/>
<path d="M402.556 122.679H346.59V126.625H402.556V122.679Z" fill="#6C63FF"/>
<path d="M435.094 105.981H411.666V109.928H435.094V105.981Z" fill="#6C63FF"/>
<path d="M466.764 105.981H443.337V109.928H466.764V105.981Z" fill="#6C63FF"/>
<path d="M323.163 105.981H314.919V109.928H323.163V105.981Z" fill="#6C63FF"/>
<path d="M339.648 105.981H331.406V109.928H339.648V105.981Z" fill="#6C63FF"/>
<path d="M403.857 105.981H347.891V109.928H403.857V105.981Z" fill="#6C63FF"/>
<path d="M386.503 114.482H363.076V118.429H386.503V114.482Z" fill="#6C63FF"/>
<path d="M354.833 114.482H331.406V118.429H354.833V114.482Z" fill="#6C63FF"/>
<path d="M323.163 114.482H314.92V118.429H323.163V114.482Z" fill="#6C63FF"/>
<path d="M466.764 114.482H458.521V118.429H466.764V114.482Z" fill="#6C63FF"/>
<path d="M450.278 114.482H394.312V118.429H450.278V114.482Z" fill="#6C63FF"/>
</g>
<defs>
<clipPath id="clip0">
<rect width="560" height="369" fill="white"/>
</clipPath>
</defs>
</svg>
