<svg width="309" height="114" viewBox="0 0 309 114" fill="none" xmlns="http://www.w3.org/2000/svg">
<path d="M289.349 42H243.475C231.268 42 225.107 47.071 225.107 57.1153V110.873C225.107 112.189 225.934 113 227.714 113C234.34 113 239.712 108.403 239.712 102.733V88.014C239.712 86.2352 241.397 84.7932 243.475 84.7932H285.147C293.015 84.7932 290.339 84.7932 302.52 84.7932C305.979 84.7932 308.785 82.3933 308.785 79.433V57.8225C308.785 46.9675 302.739 42 289.349 42ZM289.349 66.0961C289.349 71.9835 283.176 72.2238 274.993 72.2238H259.983C259.257 72.2238 258.55 72.2057 257.864 72.1758C254.257 72.0186 244.112 64.1576 244.302 61.0709C244.302 56.5059 245.605 55.287 252.122 55.287H279.862C288.045 55.287 289.604 56.5059 289.604 62.3876L289.349 66.0961Z" fill="white"/>
<path d="M289.42 70.2048H243.547C221.887 70.2048 225.179 70.2048 225.179 85.3201L225.179 111.775C225.179 112.45 225.714 112.998 226.503 112.998H285.219C291.019 112.998 291.089 112.998 295.605 112.998C302.92 112.998 308.857 107.924 308.857 101.664V86.0272C308.857 66.9066 311.947 70.2048 289.42 70.2048ZM289.42 94.3008C289.42 100.188 283.248 100.429 275.065 100.429H260.055C259.328 100.429 258.622 100.41 257.936 100.381C254.328 100.223 244.183 92.3624 244.373 89.2757C244.373 84.7106 245.677 83.4917 252.194 83.4917H279.934C288.117 83.4917 289.676 84.7106 289.676 90.5923L289.42 94.3008Z" fill="white"/>
<path d="M205.905 93.3999C205.905 106.693 200 112.598 185.908 112.598H151.004C137.042 112.598 131 106.693 131 93.3999V61.1979C131 47.9123 137.042 42 151.004 42H185.908C200 42 205.905 47.9123 205.905 61.1979V93.3999ZM186.174 66.2884C186.174 59.3032 184.835 57.964 176.51 57.964H160.531C152.077 57.964 150.731 59.3032 150.731 66.2884V88.3017C150.731 95.2793 152.077 96.6262 160.531 96.6262H176.51C184.835 96.6262 186.174 95.2793 186.174 88.3017V66.2884Z" fill="white"/>
<path d="M20 48.8923V66.6918V109.925C20 111.871 19.1824 113 17.2773 113H2.85384C0.948706 113 0 111.871 0 109.925V30.9027C0 28.9567 0.948706 27.8185 2.85384 27.8185H14.9634C16.7374 27.8185 20 28.92 20 30.866V42.8241V34.9831V45.2368V47.0462V48.8923Z" fill="white"/>
<path d="M19.2595 10.8568C19.2595 16.8529 15.175 21.7136 10.1366 21.7136C5.09812 21.7136 1.01366 16.8529 1.01366 10.8568C1.01366 4.86077 5.09812 0 10.1366 0C15.175 0 19.2595 4.86077 19.2595 10.8568Z" fill="white"/>
<path d="M58.8011 113.009H88.0659C102.698 113.009 110.216 105.75 110.224 91.6655V17.5675C110.258 17.2239 110.216 16.8771 110.1 16.5519C109.984 16.2266 109.797 15.9312 109.554 15.6867C109.31 15.4422 109.015 15.2548 108.69 15.1379C108.365 15.021 108.018 14.9776 107.675 15.0108H93.301C91.5509 15.0108 90.615 15.9544 90.615 17.5675V50.5608C90.615 57.9417 90.6226 68.3739 90.6226 68.3739V89.5502C90.6226 96.3984 88.6061 98.4072 80.5556 98.4072H63.6405C60.6881 98.4072 59.2043 97.3343 59.2043 94.6483V93.9787C59.2043 92.2362 58.2684 91.2927 56.389 91.2927H42.6925C42.3326 91.2505 41.9678 91.2901 41.6252 91.4083C41.2827 91.5265 40.9711 91.7204 40.7138 91.9755C40.4565 92.2307 40.2599 92.5405 40.1388 92.882C40.0177 93.2236 39.975 93.588 40.014 93.9483V95.2875C40.014 107.911 45.6524 113.009 58.8011 113.009Z" fill="white"/>
</svg>
