<svg width="80" height="80" viewBox="0 0 80 80" fill="none" xmlns="http://www.w3.org/2000/svg">
	<path d="M78.6667 8H1.33333C0.597005 8 0 8.59701 0 9.33333V70.6667C0 71.403 0.597005 72 1.33333 72H78.6667C79.403 72 80 71.403 80 70.6667V9.33333C80 8.59701 79.403 8 78.6667 8ZM77.3333 69.3333H2.66667V10.6667H77.3333V69.3333Z" fill="WHITE" />
	<path d="M6.66659 66.6666H73.3332C74.0696 66.6666 74.6666 66.0696 74.6666 65.3333V14.6666C74.6666 13.9303 74.0696 13.3333 73.3332 13.3333H6.66659C5.93026 13.3333 5.33325 13.9303 5.33325 14.6666V65.3333C5.33325 66.0696 5.93026 66.6666 6.66659 66.6666ZM7.99992 16H71.9999V64H7.99992V16Z" fill="WHITE" />
	<path d="M47.5429 36.8763C48.5129 35.9056 48.0761 34.5228 47.7174 33.4095C47.6184 33.1029 47.4641 32.6094 47.4107 32.4466C47.6939 32.2656 47.9869 32.1016 48.289 31.9544C49.3495 31.416 50.6666 30.7429 50.6666 29.3334C50.6666 27.9238 49.3495 27.2507 48.289 26.7097C47.9986 26.5671 47.7161 26.4108 47.4413 26.2403C47.5149 25.9069 47.6067 25.5775 47.7174 25.2546C48.0722 24.1439 48.5175 22.7611 47.5429 21.7878C46.5676 20.8145 45.1894 21.2546 44.0761 21.6133L43.1132 21.9199C42.9322 21.6367 42.7681 21.3438 42.621 21.041C42.0826 19.9837 41.4094 18.6667 39.9999 18.6667C38.5904 18.6667 37.9172 19.9837 37.3762 21.0443C37.2336 21.3347 37.0774 21.6172 36.9068 21.8919C36.5735 21.8184 36.2441 21.7266 35.9211 21.6159C34.8105 21.2611 33.4277 20.8158 32.4543 21.7904C31.481 22.7656 31.9211 24.1439 32.2799 25.2572C32.3788 25.5638 32.5331 26.0573 32.5865 26.2201C32.3033 26.4011 32.0103 26.5651 31.7076 26.7123C30.6503 27.2507 29.3333 27.9238 29.3333 29.3334C29.3333 30.7429 30.6503 31.416 31.7109 31.9571C32.0012 32.0996 32.2838 32.2559 32.5585 32.4265C32.4849 32.7598 32.3931 33.0892 32.2825 33.4121C31.9277 34.5228 31.4823 35.9056 32.4569 36.8789C33.4322 37.8522 34.8105 37.4121 35.9237 37.0534L36.8866 36.7468C37.0676 37.03 37.2317 37.3229 37.3788 37.6257C37.9198 38.6921 38.593 40.0026 40.0025 40.0026C41.412 40.0026 42.0852 38.6856 42.6269 37.6257C42.7688 37.3347 42.925 37.0521 43.0956 36.7774C43.429 36.8509 43.7584 36.9427 44.0813 37.0534C45.1894 37.4056 46.5735 37.8483 47.5429 36.8763V36.8763ZM42.0396 34.2669C41.2083 34.7487 40.5741 35.5091 40.2493 36.4134C40.1796 36.5469 40.0904 36.724 39.9999 36.8919C39.9094 36.724 39.8202 36.5508 39.7493 36.4134C39.425 35.5091 38.7916 34.7481 37.9602 34.2669C37.6731 34.1504 37.3658 34.0925 37.0559 34.0957C36.3899 34.1367 35.7343 34.278 35.1106 34.515C34.9908 34.5521 34.8437 34.6003 34.6933 34.6478C34.7375 34.4987 34.7851 34.3509 34.8267 34.2305C35.2415 33.3366 35.3267 32.3242 35.0663 31.3731C34.5852 30.5417 33.8241 29.9082 32.9198 29.584C32.7864 29.513 32.6093 29.4238 32.4413 29.3334C32.6093 29.2429 32.7825 29.1537 32.9198 29.0827C33.8241 28.7585 34.5852 28.125 35.0663 27.2936C35.3222 26.3438 35.2343 25.3347 34.8183 24.444C34.7812 24.3242 34.733 24.1771 34.6855 24.0267C34.8346 24.071 34.9823 24.1185 35.1028 24.1602C35.9934 24.5755 37.0025 24.6634 37.9517 24.4082C38.7831 23.9265 39.4172 23.166 39.7415 22.2611C39.8118 22.1283 39.901 21.9505 39.9921 21.7826C40.0826 21.9505 40.1718 22.1237 40.2415 22.2611C40.5696 23.1641 41.2069 23.9212 42.0396 24.3998C42.9895 24.6556 43.9986 24.5677 44.8892 24.1517C45.009 24.1146 45.1562 24.0664 45.3066 24.0189C45.2623 24.168 45.2148 24.3158 45.1731 24.4362C44.7584 25.3301 44.6731 26.3425 44.9335 27.2936C45.4146 28.125 46.1757 28.7585 47.08 29.0827C47.2135 29.1537 47.3905 29.2429 47.5585 29.3334C47.3905 29.4238 47.2174 29.513 47.08 29.584C46.1757 29.9082 45.4146 30.5417 44.9335 31.3731C44.6777 32.3229 44.7655 33.3321 45.1816 34.2227C45.2187 34.3425 45.2668 34.4896 45.3144 34.64C45.1653 34.5957 45.0175 34.5482 44.8971 34.5065C44.0032 34.0918 42.9908 34.0065 42.0396 34.2669V34.2669Z" fill="WHITE" />
	<path d="M33.3334 42.6667H12.0001C11.2638 42.6667 10.6667 43.2637 10.6667 44V52C10.6667 52.7363 11.2638 53.3334 12.0001 53.3334H33.3334C34.0697 53.3334 34.6667 52.7363 34.6667 52V44C34.6667 43.2637 34.0697 42.6667 33.3334 42.6667ZM32.0001 50.6667H13.3334V45.3334H32.0001V50.6667Z" fill="WHITE" />
	<path d="M68 44H45.3333C44.597 44 44 44.597 44 45.3333C44 46.0697 44.597 46.6667 45.3333 46.6667H68C68.7363 46.6667 69.3333 46.0697 69.3333 45.3333C69.3333 44.597 68.7363 44 68 44Z" fill="WHITE" />
	<path d="M65.3333 50.6666C65.3333 49.9303 64.7363 49.3333 64 49.3333H49.3333C48.597 49.3333 48 49.9303 48 50.6666C48 51.403 48.597 52 49.3333 52H64C64.7363 52 65.3333 51.403 65.3333 50.6666Z" fill="WHITE" />
	<path d="M13.3334 21.3334H17.3334V18.6667H10.6667V24H13.3334V21.3334Z" fill="WHITE" />
	<path d="M62.6667 18.6667V21.3334H66.6667V24H69.3334V18.6667H62.6667Z" fill="WHITE" />
	<path d="M66.6667 58.6667H64V61.3334H69.3333V54.6667H66.6667V58.6667Z" fill="WHITE" />
	<path d="M13.3334 56H10.6667V61.3333H17.3334V58.6667H13.3334V56Z" fill="WHITE" />
</svg>
