<svg width="25" height="25" viewBox="0 0 25 25" fill="none" xmlns="http://www.w3.org/2000/svg">
<g clip-path="url(#clip0)">
<path d="M16.1501 6.10876H19.8987C20.101 6.10876 20.2649 5.9448 20.2649 5.74255C20.2649 5.54031 20.101 5.37634 19.8987 5.37634H16.1501C15.9478 5.37634 15.7839 5.54031 15.7839 5.74255C15.7839 5.9448 15.9478 6.10876 16.1501 6.10876Z" fill="white"/>
<path d="M16.1501 7.68713H18.419C18.6213 7.68713 18.7852 7.52317 18.7852 7.32092C18.7852 7.11868 18.6213 6.95471 18.419 6.95471H16.1501C15.9478 6.95471 15.7839 7.11868 15.7839 7.32092C15.7839 7.52317 15.9478 7.68713 16.1501 7.68713Z" fill="white"/>
<path d="M16.1501 9.2655H19.8987C20.101 9.2655 20.2649 9.10154 20.2649 8.89929C20.2649 8.69705 20.101 8.53308 19.8987 8.53308H16.1501C15.9478 8.53308 15.7839 8.69705 15.7839 8.89929C15.7839 9.10154 15.9478 9.2655 16.1501 9.2655Z" fill="white"/>
<path d="M16.1501 10.8439H18.419C18.6213 10.8439 18.7852 10.6799 18.7852 10.4777C18.7852 10.2754 18.6213 10.1115 18.419 10.1115H16.1501C15.9478 10.1115 15.7839 10.2754 15.7839 10.4777C15.7839 10.6799 15.9478 10.8439 16.1501 10.8439Z" fill="white"/>
<path d="M19.8987 11.6899H16.1501C15.9478 11.6899 15.7839 11.8539 15.7839 12.0562C15.7839 12.2584 15.9478 12.4224 16.1501 12.4224H19.8987C20.101 12.4224 20.2649 12.2584 20.2649 12.0562C20.2649 11.8539 20.101 11.6899 19.8987 11.6899Z" fill="white"/>
<path d="M23.6475 0.641113H1.35254C0.606738 0.641113 0 1.2481 0 1.99414V17.7778C0 18.5236 0.606738 19.1304 1.35254 19.1304H9.12153L8.72729 22.0479H6.97559C6.5561 22.0479 6.21484 22.3891 6.21484 22.8086V23.5981C6.21484 24.0176 6.5561 24.3589 6.97559 24.3589H7.93604C8.13833 24.3589 8.30225 24.1949 8.30225 23.9927C8.30225 23.7904 8.13833 23.6265 7.93604 23.6265H6.97559C6.95996 23.6265 6.94727 23.6138 6.94727 23.5981V22.8086C6.94727 22.793 6.95996 22.7803 6.97559 22.7803H18.0244C18.04 22.7803 18.0527 22.793 18.0527 22.8086V23.5981C18.0527 23.6138 18.04 23.6265 18.0244 23.6265H9.64502C9.44272 23.6265 9.27881 23.7904 9.27881 23.9927C9.27881 24.1949 9.44272 24.3589 9.64502 24.3589H18.0244C18.4439 24.3589 18.7852 24.0176 18.7852 23.5981V22.8086C18.7852 22.3891 18.4439 22.0479 18.0244 22.0479H16.2728L15.8785 19.1304H19.7681C19.9704 19.1304 20.1343 18.9664 20.1343 18.7642C20.1343 18.5619 19.9704 18.3979 19.7681 18.3979H1.35254C1.0106 18.3979 0.732422 18.1198 0.732422 17.7778V1.99414C0.732422 1.65195 1.0106 1.37354 1.35254 1.37354H23.6475C23.9894 1.37354 24.2676 1.65195 24.2676 1.99414V17.7778C24.2676 18.1198 23.9894 18.3979 23.6475 18.3979H21.4771C21.2748 18.3979 21.1108 18.5619 21.1108 18.7642C21.1108 18.9664 21.2748 19.1304 21.4771 19.1304H23.6475C24.3933 19.1304 25 18.5236 25 17.7778V1.99414C25 1.2481 24.3933 0.641113 23.6475 0.641113V0.641113ZM15.5336 22.0479H9.46636L9.8606 19.1304H15.1394L15.5336 22.0479Z" fill="white"/>
<path d="M3.51562 2.21973H1.94482C1.74253 2.21973 1.57861 2.38369 1.57861 2.58594V17.186C1.57861 17.3883 1.74253 17.5522 1.94482 17.5522H23.0552C23.2575 17.5522 23.4214 17.3883 23.4214 17.186V2.58594C23.4214 2.38369 23.2575 2.21973 23.0552 2.21973H5.22461C5.02231 2.21973 4.8584 2.38369 4.8584 2.58594C4.8584 2.78818 5.02231 2.95215 5.22461 2.95215H22.689V16.8198H2.31104V2.95215H3.51562C3.71792 2.95215 3.88184 2.78818 3.88184 2.58594C3.88184 2.38369 3.71792 2.21973 3.51562 2.21973V2.21973Z" fill="white"/>
<path d="M3.15674 4.16431V15.6075C3.15674 15.8098 3.32065 15.9737 3.52295 15.9737H21.4771C21.6793 15.9737 21.8433 15.8098 21.8433 15.6075V4.16431C21.8433 3.96206 21.6793 3.7981 21.4771 3.7981H3.52295C3.3207 3.7981 3.15674 3.96206 3.15674 4.16431V4.16431ZM9.04731 10.3089C7.94375 10.3089 7.04595 9.41108 7.04595 8.30752C7.04595 7.20396 7.9438 6.30615 9.04731 6.30615C10.1508 6.30615 11.0486 7.20396 11.0486 8.30752C11.0486 9.41108 10.1509 10.3089 9.04731 10.3089ZM10.5271 11.0413C11.6306 11.0413 12.5284 11.9391 12.5284 13.0427V15.2413H11.5903V14.0292C11.5903 13.8269 11.4264 13.6629 11.2241 13.6629C11.0218 13.6629 10.8579 13.8269 10.8579 14.0292V15.2413H7.23667V14.0292C7.23667 13.8269 7.07275 13.6629 6.87046 13.6629C6.66816 13.6629 6.50425 13.8269 6.50425 14.0292V15.2413H5.56621V13.0427C5.56621 11.9391 6.46401 11.0413 7.56753 11.0413H10.5271ZM14.9378 14.3954H19.5325V15.2413H14.9378V14.3954ZM20.2648 15.2413V14.3954H21.1108V15.2413H20.2648ZM21.1108 13.6629H14.9378V4.53052H21.1108V13.6629ZM3.88916 4.53052H14.2054V15.2413H13.2607V13.0427C13.2607 11.6555 12.222 10.5072 10.8816 10.3327C11.4337 9.83213 11.781 9.10967 11.781 8.30752C11.781 6.8001 10.5546 5.57373 9.04727 5.57373C7.53984 5.57373 6.31348 6.8001 6.31348 8.30752C6.31348 9.10962 6.66079 9.83213 7.21284 10.3327C5.87251 10.5072 4.83374 11.6555 4.83374 13.0427V15.2413H3.88916V4.53052Z" fill="white"/>
</g>
<defs>
<clipPath id="clip0">
<rect width="25" height="25" fill="white"/>
</clipPath>
</defs>
</svg>
