<svg width="20" height="20" viewBox="0 0 20 20" fill="none" xmlns="http://www.w3.org/2000/svg">
<g clip-path="url(#clip0)">
<path d="M7.21367 16.0807C7.07462 16.1066 7.01387 16.1719 7.03129 16.2759C7.04862 16.3801 7.12675 16.4149 7.26561 16.3801C7.40466 16.3454 7.46537 16.2845 7.4479 16.1978C7.43066 16.1024 7.35254 16.0632 7.21367 16.0807Z" fill="white"/>
<path d="M6.47145 16.1849C6.33253 16.1849 6.26312 16.2324 6.26312 16.3281C6.26312 16.4409 6.33696 16.4885 6.48445 16.4712C6.62337 16.4712 6.69287 16.4234 6.69287 16.3281C6.69287 16.2154 6.61903 16.1674 6.47145 16.1849Z" fill="white"/>
<path d="M5.45581 16.1455C5.42115 16.2411 5.47761 16.306 5.62505 16.3409C5.75526 16.3928 5.83776 16.3668 5.87242 16.2627C5.8985 16.1674 5.84204 16.0981 5.70318 16.0544C5.57293 16.0198 5.49052 16.0498 5.45581 16.1455Z" fill="white"/>
<path d="M18.8997 1.10016C18.1662 0.366765 17.2831 0 16.2499 0H3.74998C2.71709 0 1.83374 0.366765 1.10016 1.10016C0.366766 1.83369 0 2.71704 0 3.74997V16.2501C0 17.2831 0.366766 18.1663 1.10016 18.8997C1.83369 19.6333 2.71709 20 3.74998 20H6.66664C6.85745 20 7.00079 19.9934 7.09625 19.9807C7.19166 19.9675 7.28706 19.9111 7.38261 19.8112C7.4782 19.7114 7.52581 19.566 7.52581 19.3751C7.52581 19.3492 7.52353 19.0537 7.51925 18.4895C7.51482 17.9252 7.51268 17.4782 7.51268 17.1483L7.21318 17.2004C7.02223 17.235 6.78134 17.2503 6.4905 17.2459C6.19981 17.2416 5.89808 17.2113 5.58563 17.1548C5.273 17.0983 4.9823 16.9682 4.71318 16.7643C4.4442 16.5602 4.25324 16.2933 4.14037 15.9635L4.01012 15.6639C3.92333 15.4644 3.78669 15.243 3.60002 15.0001C3.41336 14.7569 3.22459 14.592 3.03364 14.5052L2.94247 14.4401C2.88177 14.3967 2.82536 14.3444 2.77323 14.2837C2.72119 14.2228 2.68215 14.162 2.65611 14.1014C2.63007 14.0405 2.65169 13.9906 2.72119 13.9514C2.79069 13.9124 2.91643 13.8931 3.09881 13.8931L3.35913 13.9321C3.5328 13.9667 3.74751 14.0708 4.00373 14.2445C4.25976 14.4181 4.47024 14.6437 4.6352 14.9214C4.83495 15.2774 5.07562 15.5485 5.35787 15.7352C5.6399 15.922 5.92426 16.0154 6.21066 16.0154C6.49707 16.0154 6.74444 15.9936 6.95286 15.9504C7.16105 15.9069 7.35639 15.8416 7.53876 15.7549C7.61689 15.1733 7.8296 14.726 8.17671 14.4136C7.68197 14.3614 7.23713 14.2834 6.84204 14.1792C6.44718 14.0749 6.03914 13.9057 5.61819 13.6713C5.19706 13.4369 4.84772 13.1463 4.56993 12.7988C4.29219 12.4514 4.06425 11.9957 3.88643 11.4317C3.70852 10.8673 3.61954 10.2162 3.61954 9.47839C3.61954 8.42812 3.96255 7.53387 4.64828 6.7961C4.32703 6.0062 4.35736 5.12089 4.73936 4.1399C4.99111 4.06174 5.36444 4.12039 5.85918 4.31572C6.35401 4.51118 6.7163 4.67833 6.94643 4.81702C7.17656 4.95575 7.36095 5.07305 7.49986 5.16864C8.30732 4.94294 9.1406 4.83011 9.99991 4.83011C10.8592 4.83011 11.6926 4.94294 12.5001 5.16864L12.9949 4.85615C13.3335 4.64773 13.7328 4.45678 14.1929 4.28325C14.653 4.10967 15.0045 4.06187 15.2476 4.14004C15.6381 5.12103 15.6731 6.00634 15.3516 6.79619C16.0373 7.53406 16.3804 8.42826 16.3804 9.47852C16.3804 10.2164 16.2914 10.8697 16.1135 11.4382C15.9357 12.0067 15.7058 12.4626 15.4235 12.8055C15.1415 13.1484 14.7898 13.4368 14.3689 13.6714C13.9479 13.9057 13.5399 14.0751 13.1448 14.1791C12.7498 14.2833 12.305 14.3617 11.8103 14.4138C12.2613 14.8043 12.487 15.4204 12.487 16.2626V19.3747C12.487 19.5223 12.5085 19.6416 12.5519 19.7327C12.5956 19.8238 12.665 19.8866 12.7604 19.9216C12.8563 19.9562 12.9405 19.9779 13.0145 19.9865C13.0885 19.9952 13.1946 19.9996 13.3335 19.9996H16.2502C17.2831 19.9996 18.1664 19.6328 18.8997 18.8993C19.6332 18.1658 20 17.2824 20 16.2495V3.74997C19.9999 2.71704 19.6331 1.83355 18.8997 1.10016Z" fill="white"/>
<path d="M3.95829 14.5573C3.89759 14.6005 3.90625 14.6699 3.98437 14.7654C4.0713 14.8522 4.14067 14.8653 4.19279 14.8044C4.25349 14.7612 4.24483 14.6917 4.16657 14.5961C4.07983 14.5181 4.01042 14.505 3.95829 14.5573Z" fill="white"/>
<path d="M3.5287 14.2318C3.50271 14.2927 3.53308 14.3448 3.61987 14.388C3.68924 14.4316 3.74584 14.423 3.78912 14.3621C3.81511 14.3013 3.78474 14.2491 3.69795 14.2056C3.61116 14.1795 3.55475 14.1882 3.5287 14.2318Z" fill="white"/>
<path d="M4.36207 15.0652C4.28385 15.1084 4.28385 15.1868 4.36207 15.2995C4.44019 15.4125 4.51385 15.4428 4.5834 15.3906C4.66157 15.3298 4.66157 15.2473 4.5834 15.1431C4.51403 15.0306 4.44019 15.0042 4.36207 15.0652Z" fill="white"/>
<path d="M4.81791 15.6507C4.73974 15.7203 4.75698 15.8024 4.86999 15.8983C4.97401 16.0022 5.06085 16.0153 5.1303 15.937C5.19981 15.8677 5.18243 15.7853 5.07822 15.6898C4.9742 15.5858 4.88736 15.5727 4.81791 15.6507Z" fill="white"/>
</g>
<defs>
<clipPath id="clip0">
<rect width="20" height="20" fill="white"/>
</clipPath>
</defs>
</svg>
