<svg width="25" height="25" viewBox="0 0 25 25" fill="none" xmlns="http://www.w3.org/2000/svg">
<path d="M12.5 0C5.60343 0 0 5.60343 0 12.5C0 19.3965 5.60343 25 12.5 25C19.3965 25 25 19.3965 25 12.5C25 5.60343 19.3965 0 12.5 0ZM12.5 22.4138C7.02583 22.4138 2.58616 17.9741 2.58616 12.5C2.58616 7.02583 7.02583 2.58616 12.5 2.58616C17.9741 2.58616 22.4138 7.02583 22.4138 12.5C22.4138 17.9741 17.9741 22.4138 12.5 22.4138Z" fill="white"/>
<path d="M12.9311 3.49133H11.6379V6.07753H12.9311V3.49133Z" fill="white"/>
<path d="M21.1208 11.681H18.5345V12.9742H21.1208V11.681Z" fill="white"/>
<path d="M6.03445 11.681H3.44824V12.9742H6.03445V11.681Z" fill="white"/>
<path d="M12.9311 18.5776H11.6379V21.1638H12.9311V18.5776Z" fill="white"/>
<path d="M16.918 6.93961C17.2989 6.93961 17.6077 6.63084 17.6077 6.24996C17.6077 5.86907 17.2989 5.5603 16.918 5.5603C16.5372 5.5603 16.2284 5.86907 16.2284 6.24996C16.2284 6.63084 16.5372 6.93961 16.918 6.93961Z" fill="white"/>
<path d="M19.0732 9.52579C19.4541 9.52579 19.7629 9.21703 19.7629 8.83614C19.7629 8.45525 19.4541 8.14648 19.0732 8.14648C18.6923 8.14648 18.3835 8.45525 18.3835 8.83614C18.3835 9.21703 18.6923 9.52579 19.0732 9.52579Z" fill="white"/>
<path d="M5.71114 17.2845C6.09203 17.2845 6.40079 16.9757 6.40079 16.5948C6.40079 16.2139 6.09203 15.9052 5.71114 15.9052C5.33025 15.9052 5.02148 16.2139 5.02148 16.5948C5.02148 16.9757 5.33025 17.2845 5.71114 17.2845Z" fill="white"/>
<path d="M7.86641 19.8706C8.2473 19.8706 8.55607 19.5619 8.55607 19.181C8.55607 18.8001 8.2473 18.4913 7.86641 18.4913C7.48553 18.4913 7.17676 18.8001 7.17676 19.181C7.17676 19.5619 7.48553 19.8706 7.86641 19.8706Z" fill="white"/>
<path d="M18.8577 17.5C19.2386 17.5 19.5474 17.1912 19.5474 16.8104C19.5474 16.4295 19.2386 16.1207 18.8577 16.1207C18.4769 16.1207 18.1681 16.4295 18.1681 16.8104C18.1681 17.1912 18.4769 17.5 18.8577 17.5Z" fill="white"/>
<path d="M16.2716 19.6552C16.6525 19.6552 16.9612 19.3464 16.9612 18.9655C16.9612 18.5846 16.6525 18.2759 16.2716 18.2759C15.8907 18.2759 15.5819 18.5846 15.5819 18.9655C15.5819 19.3464 15.8907 19.6552 16.2716 19.6552Z" fill="white"/>
<path d="M5.92672 8.87932C6.30761 8.87932 6.61638 8.57055 6.61638 8.18966C6.61638 7.80877 6.30761 7.5 5.92672 7.5C5.54583 7.5 5.23706 7.80877 5.23706 8.18966C5.23706 8.57055 5.54583 8.87932 5.92672 8.87932Z" fill="white"/>
<path d="M8.5129 6.72428C8.89378 6.72428 9.20255 6.41551 9.20255 6.03463C9.20255 5.65374 8.89378 5.34497 8.5129 5.34497C8.13201 5.34497 7.82324 5.65374 7.82324 6.03463C7.82324 6.41551 8.13201 6.72428 8.5129 6.72428Z" fill="white"/>
<path d="M16.2284 12.9742C16.2284 12.6079 15.9482 12.3277 15.5818 12.3277H12.9309V7.50008C12.9309 7.1337 12.6508 6.85352 12.2844 6.85352C11.918 6.85352 11.6378 7.1337 11.6378 7.50008V12.9742C11.6378 13.3406 11.918 13.6208 12.2844 13.6208H15.5818C15.9482 13.6208 16.2284 13.3406 16.2284 12.9742Z" fill="white"/>
</svg>
