<svg width="25" height="25" viewBox="0 0 25 25" fill="none" xmlns="http://www.w3.org/2000/svg">
<g clip-path="url(#clip0)">
<path d="M23.2517 17.4513C22.7892 12.9526 17.1562 11.0378 14.0795 14.4688C11.0397 17.8589 13.4525 23.2666 17.9964 23.2666C21.1294 23.2668 23.571 20.5564 23.2517 17.4513V17.4513ZM17.996 22.5288C15.703 22.5288 13.7302 20.7905 13.4901 18.4549C13.0608 14.2774 17.9924 11.8847 21.0356 14.6147C24.0942 17.3588 22.2034 22.5288 17.996 22.5288Z" fill="white"/>
<path d="M21.311 15.9532C21.1668 15.8092 20.9332 15.8092 20.7892 15.9532L16.6414 20.1009L14.8934 18.353C14.7494 18.209 14.5157 18.2088 14.3717 18.353C14.2275 18.497 14.2275 18.7307 14.3717 18.8747L16.1608 20.6638C16.4263 20.9297 16.8562 20.9297 17.1219 20.664L21.311 16.4749C21.455 16.3309 21.455 16.0974 21.311 15.9532V15.9532Z" fill="white"/>
<path d="M13.4285 2.4458H3.05023C2.48909 2.4458 2.03247 2.9028 2.03247 3.46413V7.08161C2.03247 7.64294 2.48909 8.09975 3.05023 8.09975H13.4285C13.9898 8.09975 14.4463 7.64294 14.4463 7.08161V3.46413C14.4463 2.9028 13.9898 2.4458 13.4285 2.4458ZM13.7083 7.08161C13.7083 7.2361 13.583 7.36199 13.4285 7.36199H3.05023C2.89593 7.36199 2.77042 7.2361 2.77042 7.08161V3.46413C2.77042 3.30964 2.89593 3.18375 3.05023 3.18375H13.4285C13.583 3.18375 13.7083 3.30964 13.7083 3.46413V7.08161Z" fill="white"/>
<path d="M12.486 3.98254H3.99279C3.78889 3.98254 3.62372 4.14772 3.62372 4.35143C3.62372 4.55532 3.78889 4.7205 3.99279 4.7205H12.486C12.6897 4.7205 12.8549 4.55532 12.8549 4.35143C12.8549 4.14772 12.6897 3.98254 12.486 3.98254V3.98254Z" fill="white"/>
<path d="M10.1948 5.8252H8.81346C8.60976 5.8252 8.44458 5.99056 8.44458 6.19408C8.44458 6.39835 8.60976 6.56315 8.81346 6.56315H10.1948C10.3983 6.56315 10.5636 6.39835 10.5636 6.19408C10.5636 5.99056 10.3983 5.8252 10.1948 5.8252Z" fill="white"/>
<path d="M7.33771 5.8252H3.99279C3.78909 5.8252 3.62372 5.99056 3.62372 6.19408C3.62372 6.39835 3.78909 6.56315 3.99279 6.56315H7.33771C7.54141 6.56315 7.70659 6.39835 7.70659 6.19408C7.70659 5.99056 7.54141 5.8252 7.33771 5.8252Z" fill="white"/>
<path d="M12.486 11.2281H3.99279C3.78889 11.2281 3.62372 11.3933 3.62372 11.5972C3.62372 11.8009 3.78889 11.9661 3.99279 11.9661H12.486C12.6897 11.9661 12.8549 11.8009 12.8549 11.5972C12.8549 11.3933 12.6897 11.2281 12.486 11.2281V11.2281Z" fill="white"/>
<path d="M6.4136 13.071H3.99279C3.78889 13.071 3.62372 13.2362 3.62372 13.4399C3.62372 13.6438 3.78889 13.809 3.99279 13.809H6.4136C6.6173 13.809 6.78248 13.6438 6.78248 13.4399C6.78248 13.2362 6.6173 13.071 6.4136 13.071Z" fill="white"/>
<path d="M3.99279 19.2118H10.0717C10.2754 19.2118 10.4406 19.0467 10.4406 18.8429C10.4406 18.6391 10.2754 18.4739 10.0717 18.4739H3.99279C3.78889 18.4739 3.62372 18.6391 3.62372 18.8429C3.62372 19.0467 3.78889 19.2118 3.99279 19.2118Z" fill="white"/>
<path d="M6.94422 20.3167H3.99279C3.78909 20.3167 3.62372 20.482 3.62372 20.6857C3.62372 20.8892 3.78909 21.0546 3.99279 21.0546H6.94422C7.14774 21.0546 7.3131 20.8892 7.3131 20.6857C7.3131 20.482 7.14774 20.3167 6.94422 20.3167Z" fill="white"/>
<path d="M10.6851 20.3167H8.41998C8.21627 20.3167 8.0509 20.482 8.0509 20.6857C8.0509 20.8892 8.21627 21.0546 8.41998 21.0546H10.6851C10.8892 21.0546 11.054 20.8892 11.054 20.6857C11.054 20.482 10.8892 20.3167 10.6851 20.3167Z" fill="white"/>
<path d="M22.6778 12.7838C20.9427 11.227 18.623 10.6815 16.4787 11.162V1.23539C16.4787 0.581169 15.9466 0.0488281 15.2918 0.0488281H1.18694C0.53215 0.0488281 0 0.581169 0 1.23539V23.802C0 24.4562 0.53215 24.9884 1.18694 24.9884H15.2918C15.5815 24.9884 15.8472 24.8846 16.0532 24.712C17.5333 25.1421 19.0928 25.0591 20.4735 24.5392C20.6644 24.4675 20.7607 24.2544 20.689 24.0641C20.6171 23.8733 20.4042 23.7768 20.2139 23.8487C18.037 24.6666 15.4957 24.2382 13.7074 22.5525C9.61628 18.6981 12.3087 11.7311 18.012 11.7311C21.2276 11.7311 23.9012 14.1468 24.2302 17.3506C24.472 19.7046 23.3845 21.9385 21.452 23.2166C21.2818 23.3288 21.2351 23.5575 21.3476 23.7276C21.4598 23.8977 21.689 23.9441 21.8588 23.8319C25.7038 21.29 26.0689 15.826 22.6778 12.7838V12.7838ZM12.1687 21.8534H3.05023C2.89593 21.8534 2.77042 21.7276 2.77042 21.5731V17.9556C2.77042 17.8011 2.89593 17.6752 3.05023 17.6752H11.0132C10.9512 19.1099 11.3239 20.5786 12.1687 21.8534ZM13.7083 12.467C12.9604 13.0491 12.335 13.7814 11.878 14.6078H3.05023C2.89593 14.6078 2.77042 14.4817 2.77042 14.3274V10.71C2.77042 10.5555 2.89593 10.4296 3.05023 10.4296H13.4285C13.583 10.4296 13.7083 10.5555 13.7083 10.71V12.467ZM15.741 11.3695C15.2893 11.5231 14.856 11.7228 14.4463 11.9648V10.71C14.4463 10.1486 13.9898 9.69162 13.4285 9.69162H3.05023C2.48909 9.69162 2.03247 10.1486 2.03247 10.71V14.3274C2.03247 14.8886 2.48909 15.3456 3.05023 15.3456H11.5248C11.3163 15.8556 11.1683 16.3898 11.0855 16.9374H3.05023C2.48909 16.9374 2.03247 17.3944 2.03247 17.9556V21.5731C2.03247 22.1344 2.48909 22.5914 3.05023 22.5914H12.7319C13.3221 23.2691 14.0564 23.8415 14.8762 24.2506H1.18694C0.938988 24.2506 0.737762 24.0494 0.737762 23.802V1.23539C0.737762 0.987816 0.938988 0.786781 1.18694 0.786781H15.2918C15.5397 0.786781 15.741 0.987816 15.741 1.23539V11.3695Z" fill="white"/>
</g>
<defs>
<clipPath id="clip0">
<rect width="25" height="25" fill="white"/>
</clipPath>
</defs>
</svg>
